<svg id="Layer_1" data-name="Layer 1" xmlns="http://www.w3.org/2000/svg" viewBox="0 0 384 540.55998">
  <g>
    <path d="M198.51263,5C218.28972,140.0144-24.56578,172.41775,6.80083,386.54892a127.56606,127.56606,0,0,0,8.43474,30.68989c1.50555-18.28834,10.09551-37.76912,25.8351-58.77776,24.45754-32.64459,96.86023-91.44943,96.86023-91.44943C153.312,253.59924,168.38654,240.64475,181.759,228.33,266.91286,149.91122,198.51263,5,198.51263,5Z"/>
    <path d="M281.5503,400.06979c60.55791-61.32608-3.60527-118.896-3.60527-118.896s-10.44688,45.93371-28.159,31.06822c-13.30206-11.16478,22.23039-27.80459,13.47538-62.08135-6.35472-24.879-25.7532-41.11075-25.7532-41.11075s23.81256,43.65936-13.25767,60.84714a55.65241,55.65241,0,0,0-19.0262,14.3864c-4.3613-21.768,9.86971-40.96,9.86971-40.96s-19.81145,7.84235-32.34938,30.251c-17.27388,30.87327,14.46878,56.30982-1.25732,63.67895C160.54848,347.065,168.99681,300.87,168.99681,300.87,135.083,328.4716,131.45132,350.272,139.69373,371.39121,172.85729,456.36477,256.41414,427.93715,281.5503,400.06979Z"/>
    <path d="M379.865,355.97372a159.5265,159.5265,0,0,0-2.88924-25.31813l-1.32407-6.17338c-.49531-2.043-1.07188-4.06858-1.60849-6.08608l-.82876-3.01684-.96778-2.98058c-.6622-1.97854-1.25254-3.96112-2.0081-5.898C358.77664,275.33557,336.92164,249.79917,310.81,234.316h0c4.05078,6.36009,7.27616,13.21515,10.47937,19.70688a177.779,177.779,0,0,1,8.072,19.76127,167.64064,167.64064,0,0,1,5.07565,20.04873,150.40307,150.40307,0,0,1,2.133,19.956,136.69149,136.69149,0,0,1-.682,19.5195,132.07863,132.07863,0,0,1-3.2959,18.766,126.83473,126.83473,0,0,1-13.72758,33.8072,121.98162,121.98162,0,0,1-48.96195,46.68857,111.98845,111.98845,0,0,1-61.47192,12.08619,106.02872,106.02872,0,0,1-89.67727-67.09324,102.58747,102.58747,0,0,1-6.65325-27.78292,105.05851,105.05851,0,0,1-.47247-14.49321,107.0977,107.0977,0,0,1,1.41574-14.40725,120.61012,120.61012,0,0,1,3.31772-14.15339c.585-1.89258,1.24415-3.765,1.93725-5.63073-43.38428,38.78514-79.60389,78.01084-84.67584,114.31373a64.87574,64.87574,0,0,0,8.47463,36.74883c3.46884,5.06523,7.14453,9.98138,11.06132,14.688a195.2545,195.2545,0,0,0,20.624,21.17836,199.54819,199.54819,0,0,0,23.54811,17.73438,202.97639,202.97639,0,0,0,25.92728,13.87265,189.07746,189.07746,0,0,0,56.32105,14.94722,208.4546,208.4546,0,0,0,28.85177.81533,207.7527,207.7527,0,0,0,28.44109-3.577,197.4086,197.4086,0,0,0,27.434-7.847,181.13409,181.13409,0,0,0,48.95591-27.45652,186.42117,186.42117,0,0,0,20.361-18.76327,179.42754,179.42754,0,0,0,17.03994-21.42551A171.88346,171.88346,0,0,0,373.4344,407.749a154.764,154.764,0,0,0,5.2909-25.846c.23371-2.17465.56985-4.31975.69779-6.4971l.4389-6.49441c.12458-2.15987.10644-4.3305.1276-6.485L380,359.19877Z"/>
  </g>
</svg>
